<svg width="810" height="904" viewBox="0 0 810 904" fill="none" xmlns="http://www.w3.org/2000/svg">
<path d="M68 622C68 622 54.5 653 84 672L449 890C486 906.5 512.5 897 527.5 872.5L801 215.5C806.5 184.5 805.5 158 777.5 131.5L660 99.5V83L590.5 62.5C590.5 62.5 587.626 18.5731 567 8.00005C540.496 -5.58636 499.5 43.5 499.5 43.5L433 30L427 43.5M68 622C68 622 32.0409 602.192 9 589.5M68 622L9 589.5M9 589.5C102 478.5 200.5 279 200.5 279M9 589.5L486 844.5M200.5 279C244.043 187.032 312 43.5 312 43.5M200.5 279L312 43.5M200.5 279C275.364 120.879 273.428 43.4595 326.931 27.2611M312 43.5C318.38 37.2786 322.502 33.47 325.036 31.3334M352 24C381.289 31.6153 427 43.5 427 43.5M352 24C342.412 24 334.165 25.071 326.931 27.2611M352 24C350.27 23.5729 348.684 23.1706 347.226 22.8007C333.622 19.3496 326.931 27.2611 326.931 27.2611M352 24L427 43.5M760 167C590.5 420.5 486 844.5 486 844.5M760 167L660 131.5V158L406.5 83V62.5L321.75 38.75M760 167L772 172.5L486 844.5M321.75 38.75C322.479 37.1237 323.139 35.6261 323.745 34.2496C323.85 34.0117 323.953 33.7773 324.055 33.5466M321.75 38.75L324.055 33.5466M325.036 31.3334C325.724 29.7905 326.345 28.4387 326.931 27.2611M325.036 31.3334C324.724 32.0315 324.398 32.7687 324.055 33.5466M325.036 31.3334L324.055 33.5466M312 139.5L574 227.5M282 241.5C282 241.5 448 288.5 535 331M233 342C233 342 406.5 386.5 486 442M200.5 433.5C200.5 433.5 378 487 440 554.5M152.5 533.5C152.5 533.5 326.931 589.5 401 646M615.5 227.5L627.5 263.5L680 227.5M574 321.5L585 356L640.5 309.5M526 425L542.5 466L596 417M486 533.5L499.5 571L558 527M448 640.5L458.5 680L514 634" stroke="black" stroke-width="11"/>
</svg>
