<svg width="150" height="100" viewBox="0 0 150 100" fill="none" xmlns="http://www.w3.org/2000/svg">
<g clip-path="url(#clip0_84_17)">
<path d="M150 94.7233L137.037 12.4605L14.3519 11.3636L0 94.7233H59.2593L61.5741 90.336C75 101.853 87.963 90.336 87.963 90.336L90.7407 94.7233H150Z" fill="#361A35" stroke="#442743" stroke-width="3"/>
<path d="M75.3369 4.69588C77.1876 0.27795 107.725 -4.69221 135.024 10.2183L135.949 11.3228L146.591 88.6364H90.6055C90.6055 88.6364 77.6502 75.1699 58.2173 88.6364H4.54546C4.54545 88.0112 4.63848 87.395 4.81793 86.7892L16.1127 10.2183C21.2023 8.00931 57.2921 -7.65411 75.3369 4.69588Z" fill="#7E7E7E"/>
<path d="M75.3369 77.5915C80.8892 68.2035 115.128 67.6513 142.427 80.3527M75.3369 77.5915V4.69588M75.3369 77.5915C61.4562 63.2333 4.54534 73.1737 4.54546 88.6364M142.427 80.3527L135.024 10.2183M142.427 80.3527L146.591 88.6364M135.024 10.2183C107.725 -4.69221 77.1876 0.27795 75.3369 4.69588M135.024 10.2183L135.949 11.3228L146.591 88.6364M75.3369 4.69588C57.2921 -7.65411 21.2023 8.00931 16.1127 10.2183L4.54546 88.6364M4.54546 88.6364H58.2173C77.6502 75.1699 90.6055 88.6364 90.6055 88.6364H146.591" stroke="#726C6F" stroke-width="2"/>
<path d="M71.5909 8.25481C71.5909 8.25481 62.3317 -2.78284 17.4242 13.2218L9.09091 76.1364C36.4057 57.9242 71.5909 69.5138 71.5909 69.5138V8.25481Z" fill="url(#paint0_linear_84_17)" stroke="#8D8D8D"/>
<path d="M79.5454 69.4776V7.52398C113.443 0.944843 132.681 14.1031 132.681 14.1031L138.636 73.8636C138.636 73.8636 102.449 59.6088 79.5454 69.4776Z" fill="url(#paint1_linear_84_17)" stroke="#8D8D8D"/>
<path d="M73.3761 79.9085C73.3761 79.9085 43.2172 62.6948 7.95454 86.3636L57.1367 86.3636C57.1367 86.3636 63.6324 79.9085 73.3761 79.9085Z" fill="#726C6F"/>
<path d="M91.9354 86.3636C87.2955 81.5223 77.5519 79.9085 77.5519 79.9085C106.783 65.3844 142.045 86.3636 142.045 86.3636L91.9354 86.3636Z" fill="#726C6F"/>
<path d="M73.3761 79.9085C73.3761 79.9085 43.2172 62.6948 7.95454 86.3636L57.1367 86.3636C57.1367 86.3636 63.6324 79.9085 73.3761 79.9085Z" stroke="#7E7E7E"/>
<path d="M91.9354 86.3636C87.2955 81.5223 77.5519 79.9085 77.5519 79.9085C106.783 65.3844 142.045 86.3636 142.045 86.3636L91.9354 86.3636Z" stroke="#7E7E7E"/>
<path d="M96.6818 87.5C108.676 42.907 80.5358 47.9872 75 2.26529L77.3066 1.13635C84.6876 48.5519 110.521 29.36 106.369 87.5L100.372 83.5487L96.6818 87.5Z" fill="url(#paint2_linear_84_17)" stroke="#750303" stroke-width="2"/>
</g>
<defs>
<linearGradient id="paint0_linear_84_17" x1="16.9613" y1="33.0895" x2="71.5955" y2="32.3127" gradientUnits="userSpaceOnUse">
<stop offset="0.503052" stop-color="#B1B1B1"/>
<stop offset="1" stop-color="#6C6868"/>
</linearGradient>
<linearGradient id="paint1_linear_84_17" x1="80.0042" y1="37.6783" x2="134.058" y2="37.2956" gradientUnits="userSpaceOnUse">
<stop stop-color="#8D8D8D"/>
<stop offset="0.486395" stop-color="#CDCDCD"/>
</linearGradient>
<linearGradient id="paint2_linear_84_17" x1="74.5388" y1="2.26553" x2="117.28" y2="80.4684" gradientUnits="userSpaceOnUse">
<stop offset="0.183077" stop-color="#750303"/>
<stop offset="0.641792" stop-color="#FF0303"/>
<stop offset="0.868024" stop-color="#750303"/>
</linearGradient>
<clipPath id="clip0_84_17">
<rect width="150" height="100" fill="white"/>
</clipPath>
</defs>
</svg>
