<svg width="150" height="100" viewBox="0 0 150 100" fill="none" xmlns="http://www.w3.org/2000/svg">
<g clip-path="url(#clip0_97_4)">
<rect width="150" height="100" fill="#D9D9D9"/>
<g filter="url(#filter0_d_97_4)">
<rect x="2" y="3" width="47" height="46" rx="2" fill="#D9D9D9"/>
</g>
<rect x="5" y="33" width="41" height="2" fill="#585858"/>
<rect x="5" y="30" width="41" height="2" fill="#6C6868"/>
<rect x="5" y="36" width="41" height="2" fill="#585858"/>
<rect x="15" y="39" width="22" height="2" fill="#1117AF"/>
<circle cx="26.5" cy="44.5" r="3.5" fill="#0105FF"/>
<path d="M20.3077 10.8605V9H30.3077V10.8605H32.2308L33 12.2558V28.0698L31.4615 29H19.1538L18 27.6047V12.2558L18.7692 10.8605H20.3077Z" fill="#A09E9E" stroke="#A09E9E"/>
<path d="M20 5V9H31V5H20Z" fill="#FD6F50" stroke="#FD6F50"/>
<g filter="url(#filter1_d_97_4)">
<rect x="51" y="3" width="47" height="46" rx="2" fill="#D9D9D9"/>
</g>
<rect x="54" y="33" width="41" height="2" fill="#585858"/>
<rect x="54" y="30" width="41" height="2" fill="#6C6868"/>
<rect x="54" y="36" width="41" height="2" fill="#585858"/>
<rect x="64" y="39" width="22" height="2" fill="#1117AF"/>
<circle cx="75.5" cy="44.5" r="3.5" fill="#0105FF"/>
<path d="M69.3077 10.8605V9H79.3077V10.8605H81.2308L82 12.2558V28.0698L80.4615 29H68.1538L67 27.6047V12.2558L67.7692 10.8605H69.3077Z" fill="#A09E9E" stroke="#A09E9E"/>
<path d="M69 5V9H80V5H69Z" fill="#FD6F50" stroke="#FD6F50"/>
<g filter="url(#filter2_d_97_4)">
<rect x="100" y="3" width="47" height="46" rx="2" fill="#D9D9D9"/>
</g>
<rect x="103" y="33" width="41" height="2" fill="#585858"/>
<rect x="103" y="30" width="41" height="2" fill="#6C6868"/>
<rect x="103" y="36" width="41" height="2" fill="#585858"/>
<rect x="113" y="39" width="22" height="2" fill="#1117AF"/>
<circle cx="124.5" cy="44.5" r="3.5" fill="#0105FF"/>
<path d="M118.308 10.8605V9H128.308V10.8605H130.231L131 12.2558V28.0698L129.462 29H117.154L116 27.6047V12.2558L116.769 10.8605H118.308Z" fill="#A09E9E" stroke="#A09E9E"/>
<path d="M118 5V9H129V5H118Z" fill="#FD6F50" stroke="#FD6F50"/>
<g filter="url(#filter3_d_97_4)">
<rect x="2" y="51" width="47" height="46" rx="2" fill="#D9D9D9"/>
</g>
<rect x="5" y="81" width="41" height="2" fill="#585858"/>
<rect x="5" y="78" width="41" height="2" fill="#6C6868"/>
<rect x="5" y="84" width="41" height="2" fill="#585858"/>
<rect x="15" y="87" width="22" height="2" fill="#1117AF"/>
<circle cx="26.5" cy="92.5" r="3.5" fill="#0105FF"/>
<path d="M20.3077 58.8605V57H30.3077V58.8605H32.2308L33 60.2558V76.0698L31.4615 77H19.1538L18 75.6047V60.2558L18.7692 58.8605H20.3077Z" fill="#A09E9E" stroke="#A09E9E"/>
<path d="M20 53V57H31V53H20Z" fill="#FD6F50" stroke="#FD6F50"/>
<g filter="url(#filter4_d_97_4)">
<rect x="51" y="51" width="47" height="46" rx="2" fill="#D9D9D9"/>
</g>
<rect x="54" y="81" width="41" height="2" fill="#585858"/>
<rect x="54" y="78" width="41" height="2" fill="#6C6868"/>
<rect x="54" y="84" width="41" height="2" fill="#585858"/>
<rect x="64" y="87" width="22" height="2" fill="#1117AF"/>
<circle cx="75.5" cy="92.5" r="3.5" fill="#0105FF"/>
<path d="M69.3077 58.8605V57H79.3077V58.8605H81.2308L82 60.2558V76.0698L80.4615 77H68.1538L67 75.6047V60.2558L67.7692 58.8605H69.3077Z" fill="#A09E9E" stroke="#A09E9E"/>
<path d="M69 53V57H80V53H69Z" fill="#FD6F50" stroke="#FD6F50"/>
<g filter="url(#filter5_d_97_4)">
<rect x="100" y="51" width="47" height="46" rx="2" fill="#D9D9D9"/>
</g>
<rect x="103" y="81" width="41" height="2" fill="#585858"/>
<rect x="103" y="78" width="41" height="2" fill="#6C6868"/>
<rect x="103" y="84" width="41" height="2" fill="#585858"/>
<rect x="113" y="87" width="22" height="2" fill="#1117AF"/>
<circle cx="124.5" cy="92.5" r="3.5" fill="#0105FF"/>
<path d="M118.308 58.8605V57H128.308V58.8605H130.231L131 60.2558V76.0698L129.462 77H117.154L116 75.6047V60.2558L116.769 58.8605H118.308Z" fill="#A09E9E" stroke="#A09E9E"/>
<path d="M118 53V57H129V53H118Z" fill="#FD6F50" stroke="#FD6F50"/>
</g>
<defs>
<filter id="filter0_d_97_4" x="2" y="3" width="49" height="48" filterUnits="userSpaceOnUse" color-interpolation-filters="sRGB">
<feFlood flood-opacity="0" result="BackgroundImageFix"/>
<feColorMatrix in="SourceAlpha" type="matrix" values="0 0 0 0 0 0 0 0 0 0 0 0 0 0 0 0 0 0 127 0" result="hardAlpha"/>
<feOffset dx="1" dy="1"/>
<feGaussianBlur stdDeviation="0.5"/>
<feComposite in2="hardAlpha" operator="out"/>
<feColorMatrix type="matrix" values="0 0 0 0 0 0 0 0 0 0 0 0 0 0 0 0 0 0 1 0"/>
<feBlend mode="normal" in2="BackgroundImageFix" result="effect1_dropShadow_97_4"/>
<feBlend mode="normal" in="SourceGraphic" in2="effect1_dropShadow_97_4" result="shape"/>
</filter>
<filter id="filter1_d_97_4" x="51" y="3" width="49" height="48" filterUnits="userSpaceOnUse" color-interpolation-filters="sRGB">
<feFlood flood-opacity="0" result="BackgroundImageFix"/>
<feColorMatrix in="SourceAlpha" type="matrix" values="0 0 0 0 0 0 0 0 0 0 0 0 0 0 0 0 0 0 127 0" result="hardAlpha"/>
<feOffset dx="1" dy="1"/>
<feGaussianBlur stdDeviation="0.5"/>
<feComposite in2="hardAlpha" operator="out"/>
<feColorMatrix type="matrix" values="0 0 0 0 0 0 0 0 0 0 0 0 0 0 0 0 0 0 1 0"/>
<feBlend mode="normal" in2="BackgroundImageFix" result="effect1_dropShadow_97_4"/>
<feBlend mode="normal" in="SourceGraphic" in2="effect1_dropShadow_97_4" result="shape"/>
</filter>
<filter id="filter2_d_97_4" x="100" y="3" width="49" height="48" filterUnits="userSpaceOnUse" color-interpolation-filters="sRGB">
<feFlood flood-opacity="0" result="BackgroundImageFix"/>
<feColorMatrix in="SourceAlpha" type="matrix" values="0 0 0 0 0 0 0 0 0 0 0 0 0 0 0 0 0 0 127 0" result="hardAlpha"/>
<feOffset dx="1" dy="1"/>
<feGaussianBlur stdDeviation="0.5"/>
<feComposite in2="hardAlpha" operator="out"/>
<feColorMatrix type="matrix" values="0 0 0 0 0 0 0 0 0 0 0 0 0 0 0 0 0 0 1 0"/>
<feBlend mode="normal" in2="BackgroundImageFix" result="effect1_dropShadow_97_4"/>
<feBlend mode="normal" in="SourceGraphic" in2="effect1_dropShadow_97_4" result="shape"/>
</filter>
<filter id="filter3_d_97_4" x="2" y="51" width="49" height="48" filterUnits="userSpaceOnUse" color-interpolation-filters="sRGB">
<feFlood flood-opacity="0" result="BackgroundImageFix"/>
<feColorMatrix in="SourceAlpha" type="matrix" values="0 0 0 0 0 0 0 0 0 0 0 0 0 0 0 0 0 0 127 0" result="hardAlpha"/>
<feOffset dx="1" dy="1"/>
<feGaussianBlur stdDeviation="0.5"/>
<feComposite in2="hardAlpha" operator="out"/>
<feColorMatrix type="matrix" values="0 0 0 0 0 0 0 0 0 0 0 0 0 0 0 0 0 0 1 0"/>
<feBlend mode="normal" in2="BackgroundImageFix" result="effect1_dropShadow_97_4"/>
<feBlend mode="normal" in="SourceGraphic" in2="effect1_dropShadow_97_4" result="shape"/>
</filter>
<filter id="filter4_d_97_4" x="51" y="51" width="49" height="48" filterUnits="userSpaceOnUse" color-interpolation-filters="sRGB">
<feFlood flood-opacity="0" result="BackgroundImageFix"/>
<feColorMatrix in="SourceAlpha" type="matrix" values="0 0 0 0 0 0 0 0 0 0 0 0 0 0 0 0 0 0 127 0" result="hardAlpha"/>
<feOffset dx="1" dy="1"/>
<feGaussianBlur stdDeviation="0.5"/>
<feComposite in2="hardAlpha" operator="out"/>
<feColorMatrix type="matrix" values="0 0 0 0 0 0 0 0 0 0 0 0 0 0 0 0 0 0 1 0"/>
<feBlend mode="normal" in2="BackgroundImageFix" result="effect1_dropShadow_97_4"/>
<feBlend mode="normal" in="SourceGraphic" in2="effect1_dropShadow_97_4" result="shape"/>
</filter>
<filter id="filter5_d_97_4" x="100" y="51" width="49" height="48" filterUnits="userSpaceOnUse" color-interpolation-filters="sRGB">
<feFlood flood-opacity="0" result="BackgroundImageFix"/>
<feColorMatrix in="SourceAlpha" type="matrix" values="0 0 0 0 0 0 0 0 0 0 0 0 0 0 0 0 0 0 127 0" result="hardAlpha"/>
<feOffset dx="1" dy="1"/>
<feGaussianBlur stdDeviation="0.5"/>
<feComposite in2="hardAlpha" operator="out"/>
<feColorMatrix type="matrix" values="0 0 0 0 0 0 0 0 0 0 0 0 0 0 0 0 0 0 1 0"/>
<feBlend mode="normal" in2="BackgroundImageFix" result="effect1_dropShadow_97_4"/>
<feBlend mode="normal" in="SourceGraphic" in2="effect1_dropShadow_97_4" result="shape"/>
</filter>
<clipPath id="clip0_97_4">
<rect width="150" height="100" fill="white"/>
</clipPath>
</defs>
</svg>
