<svg width="150" height="100" viewBox="0 0 150 100" fill="none" xmlns="http://www.w3.org/2000/svg">
<path d="M51.5 35L54 37L58.5 32C59.1667 31.8334 60.5 31.5 60.5 33.5L55.5 39C55.1667 39.6667 54.2 40.6 53 39L50.5 37C50 36.3334 49.5 35 51.5 35Z" fill="url(#paint0_linear_133_2)"/>
<path d="M42 12.5H53C53 14.5 54 18.9 58 20.5H80.5C82 20.3334 85.1 18.5 85.5 12.5H97C98 12.8334 100 14.1 100 16.5V59.5L93.5 60V27.5H45V83H76.5L78.5 90H42C40.6667 89.8334 38 88.6 38 85V16.5C38.3333 15.1667 39.6 12.5 42 12.5Z" fill="url(#paint1_linear_133_2)"/>
<path d="M51.5 47L54 49L58.5 44C58.5 44 60.5 43.5 60.5 45.5L55.5 51C55.1667 51.6667 54.2 52.6 53 51L50.5 49C50 48.3334 49.5 47 51.5 47Z" fill="url(#paint2_linear_133_2)"/>
<path d="M51.5 59L54 61L58.5 56C58.5 56 60.5 55.5 60.5 57.5L55.5 63C55.1667 63.6667 54.2 64.6 53 63L50.5 61C50 60.3334 49.5 59 51.5 59Z" fill="url(#paint3_linear_133_2)"/>
<path d="M51.5 70.5L54 72.5L58.5 67.5C58.5 67.5 60.5 67 60.5 69L55.5 74.5C55.1667 75.1667 54.2 76.1 53 74.5L50.5 72.5C50 71.8334 49.5 70.5 51.5 70.5Z" fill="url(#paint4_linear_133_2)"/>
<path d="M64.5 35H87C87.5 35.6667 88.2 37.2 87 38H64.5C63.5 37.5 62.1 36.2 64.5 35Z" fill="url(#paint5_linear_133_2)"/>
<path d="M64.5 48H87C87.5 48.6667 88.2 50.2 87 51H64.5C63.5 50.5 62.1 49.2 64.5 48Z" fill="url(#paint6_linear_133_2)"/>
<path d="M64.5 59H80.5C81 59.6667 81.7 61.2 80.5 62H64.5C63.5 61.5 62.1 60.2 64.5 59Z" fill="url(#paint7_linear_133_2)"/>
<path d="M64.5 71.5H77.5C78 72.1667 78.7 73.7 77.5 74.5H64.5C63.5 74 62.1 72.7 64.5 71.5Z" fill="url(#paint8_linear_133_2)"/>
<path fill-rule="evenodd" clip-rule="evenodd" d="M81 82C81.5 59.5 116.5 58.5 116.5 82C116.5 105.5 80.5 104.5 81 82ZM107.5 74L97.5 84.5L92 81C88 81 88 83.6667 88.5 85L93.5 89C97.1 92.6 100.333 90.5 101.5 89L111.5 77.5C111.5 73.9 108.833 73.6667 107.5 74Z" fill="url(#paint9_linear_133_2)"/>
<path fill-rule="evenodd" clip-rule="evenodd" d="M80 10C81.6667 11.5 84 15.1 80 17.5H59C56.8333 16.3334 53.8 13.2 59 10H63C63.8333 9.83338 65.4 8.80004 65 6.00004C66.5 3.50004 70.4 4.41074e-05 74 6.00004C74 6.00004 73.5 10 75.5 10H80ZM71.5 7.50003C71.5 4.50003 67 4.70003 67 7.50003C67 10.3 71.5 10.5 71.5 7.50003Z" fill="url(#paint10_linear_133_2)"/>
<defs>
<linearGradient id="paint0_linear_133_2" x1="77.25" y1="2.68713" x2="77.25" y2="99.2521" gradientUnits="userSpaceOnUse">
<stop stop-color="#00D1FF"/>
<stop offset="1" stop-color="#24FF00"/>
</linearGradient>
<linearGradient id="paint1_linear_133_2" x1="77.25" y1="2.68713" x2="77.25" y2="99.2521" gradientUnits="userSpaceOnUse">
<stop stop-color="#00D1FF"/>
<stop offset="1" stop-color="#24FF00"/>
</linearGradient>
<linearGradient id="paint2_linear_133_2" x1="77.25" y1="2.68713" x2="77.25" y2="99.2521" gradientUnits="userSpaceOnUse">
<stop stop-color="#00D1FF"/>
<stop offset="1" stop-color="#24FF00"/>
</linearGradient>
<linearGradient id="paint3_linear_133_2" x1="77.25" y1="2.68713" x2="77.25" y2="99.2521" gradientUnits="userSpaceOnUse">
<stop stop-color="#00D1FF"/>
<stop offset="1" stop-color="#24FF00"/>
</linearGradient>
<linearGradient id="paint4_linear_133_2" x1="77.25" y1="2.68713" x2="77.25" y2="99.2521" gradientUnits="userSpaceOnUse">
<stop stop-color="#00D1FF"/>
<stop offset="1" stop-color="#24FF00"/>
</linearGradient>
<linearGradient id="paint5_linear_133_2" x1="77.25" y1="2.68713" x2="77.25" y2="99.2521" gradientUnits="userSpaceOnUse">
<stop stop-color="#00D1FF"/>
<stop offset="1" stop-color="#24FF00"/>
</linearGradient>
<linearGradient id="paint6_linear_133_2" x1="77.25" y1="2.68713" x2="77.25" y2="99.2521" gradientUnits="userSpaceOnUse">
<stop stop-color="#00D1FF"/>
<stop offset="1" stop-color="#24FF00"/>
</linearGradient>
<linearGradient id="paint7_linear_133_2" x1="77.25" y1="2.68713" x2="77.25" y2="99.2521" gradientUnits="userSpaceOnUse">
<stop stop-color="#00D1FF"/>
<stop offset="1" stop-color="#24FF00"/>
</linearGradient>
<linearGradient id="paint8_linear_133_2" x1="77.25" y1="2.68713" x2="77.25" y2="99.2521" gradientUnits="userSpaceOnUse">
<stop stop-color="#00D1FF"/>
<stop offset="1" stop-color="#24FF00"/>
</linearGradient>
<linearGradient id="paint9_linear_133_2" x1="77.25" y1="2.68713" x2="77.25" y2="99.2521" gradientUnits="userSpaceOnUse">
<stop stop-color="#00D1FF"/>
<stop offset="1" stop-color="#24FF00"/>
</linearGradient>
<linearGradient id="paint10_linear_133_2" x1="77.25" y1="2.68713" x2="77.25" y2="99.2521" gradientUnits="userSpaceOnUse">
<stop stop-color="#00D1FF"/>
<stop offset="1" stop-color="#24FF00"/>
</linearGradient>
</defs>
</svg>
